<svg xmlns="http://www.w3.org/2000/svg" viewBox="0 0 120 120" role="img" aria-label="AD logo"><defs><linearGradient id="g" x1="0" x2="1" y1="0" y2="1"><stop stop-color="#00f5ff"/><stop offset=".55" stop-color="#7c3cff"/><stop offset="1" stop-color="#ff4ecd"/></linearGradient><filter id="s" x="-20%" y="-20%" width="140%" height="140%"><feDropShadow dx="0" dy="12" stdDeviation="10" flood-color="#00f5ff" flood-opacity=".35"/></filter></defs><rect width="120" height="120" rx="30" fill="#08111f"/><path d="M27 84 48 28h15l21 56H69l-4-12H45l-4 12H27Zm22-25h16l-8-23-8 23Zm40 25V28h21c17 0 28 11 28 28s-11 28-28 28H89Zm13-12h8c10 0 16-6 16-16s-6-16-16-16h-8v32Z" transform="translate(-9 0)" fill="url(#g)" filter="url(#s)"/></svg>